<svg width="1024" height="1024" viewBox="0 0 1024 1024" xmlns="http://www.w3.org/2000/svg">
  <!-- Background gradient -->
  <defs>
    <linearGradient id="grad" x1="0%" y1="0%" x2="100%" y2="100%">
      <stop offset="0%" style="stop-color:#FF1493;stop-opacity:1" />
      <stop offset="100%" style="stop-color:#E6005C;stop-opacity:1" />
    </linearGradient>
  </defs>
  
  <!-- Rounded background -->
  <circle cx="512" cy="512" r="512" fill="url(#grad)"/>
  
  <!-- Left heart -->
  <path d="M 380 400 C 380 350 420 320 460 320 C 490 320 515 340 512 370 C 509 340 534 320 564 320 C 604 320 644 350 644 400 C 644 480 512 580 512 580 C 512 580 380 480 380 400 Z" 
        fill="rgba(255,255,255,0.8)" transform="translate(-120, 0) scale(1.1)"/>
  
  <!-- Right heart -->
  <path d="M 380 400 C 380 350 420 320 460 320 C 490 320 515 340 512 370 C 509 340 534 320 564 320 C 604 320 644 350 644 400 C 644 480 512 580 512 580 C 512 580 380 480 380 400 Z" 
        fill="rgba(255,255,255,0.9)" transform="translate(120, 0) scale(1.1)"/>
  
  <!-- Center heart (larger) -->
  <path d="M 320 350 C 320 280 370 240 420 240 C 460 240 495 265 512 300 C 529 265 564 240 604 240 C 654 240 704 280 704 350 C 704 460 512 620 512 620 C 512 620 320 460 320 350 Z" 
        fill="white"/>
</svg>